<svg width="1200" height="630" viewBox="0 0 1200 630" fill="none" xmlns="http://www.w3.org/2000/svg">
  <rect width="1200" height="630" fill="#123646"/>
  <g transform="translate(460, 115) scale(0.8)">
    <path d="M202.301 0.359504C208.331 -0.190496 218.801 -0.0604951 224.851 0.419505C275.261 5.16951 321.261 9.6895 371.651 14.7695C380.391 15.7795 389.511 15.7095 397.731 19.2695C411.571 25.2395 421.961 38.1395 425.661 52.6695C427.691 60.7895 427.071 69.2195 427.141 77.4995C427.121 139.54 427.131 201.56 427.131 263.59C427.111 277.24 427.621 290.929 426.231 304.529C422.701 333.289 410.571 360.889 391.961 383.09C379.121 398.98 363.001 411.77 346.431 423.539C308.541 450.219 265.481 474.43 225.011 496.91C218.361 501.16 209.051 500.959 202.161 496.679C172.281 481.499 146.331 465.229 117.631 447.909C98.2413 436.709 79.4313 424.469 61.9413 410.479C22.1613 380.079 -2.00872 330.27 0.131276 280.079C0.201276 208.609 0.0412761 137.139 0.211276 65.6695C0.161276 43.0295 17.2613 19.9495 40.6113 17.7095C94.4813 11.6795 148.421 6.2095 202.301 0.359504Z" fill="#1a4a5e"/>
  </g>
  <text x="600" y="540" font-family="system-ui, -apple-system, sans-serif" font-size="52" font-weight="700" fill="white" text-anchor="middle">SafeTrekr</text>
  <text x="600" y="590" font-family="system-ui, -apple-system, sans-serif" font-size="24" fill="#8ab4c7" text-anchor="middle">Professional Trip Safety Planning</text>
</svg>
