<svg width="428" height="500" viewBox="0 0 428 500" fill="none" xmlns="http://www.w3.org/2000/svg">
<rect width="428" height="500" rx="64" fill="white"/>
<g transform="translate(53.5 62.5) scale(0.75)"><path d="M202.301 0.359504C208.331 -0.190496 218.801 -0.0604951 224.851 0.419505C275.261 5.16951 321.261 9.6895 371.651 14.7695C380.391 15.7795 389.511 15.7095 397.731 19.2695C411.571 25.2395 421.961 38.1395 425.661 52.6695C427.691 60.7895 427.071 69.2195 427.141 77.4995C427.121 139.54 427.131 201.56 427.131 263.59C427.111 277.24 427.621 290.929 426.231 304.529C422.701 333.289 410.571 360.889 391.961 383.09C379.121 398.98 363.001 411.77 346.431 423.539C308.541 450.219 265.481 474.43 225.011 496.91C218.361 501.16 209.051 500.959 202.161 496.679C172.281 481.499 146.331 465.229 117.631 447.909C98.2413 436.709 79.4313 424.469 61.9413 410.479C22.1613 380.079 -2.00872 330.27 0.131276 280.079C0.201276 208.609 0.0412761 137.139 0.211276 65.6695C0.161276 43.0295 17.2613 19.9495 40.6113 17.7095C94.4813 11.6795 148.421 6.2095 202.301 0.359504ZM47.0613 45.3795C35.2013 46.0495 26.9413 55.4795 28.0613 66.8795C28.1913 132.919 28.0613 201.31 28.5113 267.34C34.0813 262.609 39.0613 257.25 44.1513 251.99C95.7313 199.53 150.631 144.53 202.181 92.0295C205.651 88.5895 208.551 86.6295 213.651 86.6295C219.261 86.6295 221.451 88.1095 225.091 91.9195C245.481 113.92 267.201 135.75 287.861 157.5C291.371 161.02 294.691 165.01 299.261 167.22C306.481 170.41 314.801 165.81 321.911 169.41C327.551 172.55 331.581 177.78 336.151 182.22C357.141 203.51 377.351 225.6 399.031 246.189C399.251 186.789 398.991 126 399.161 66.6095C399.361 59.8795 397.371 54.1895 392.201 49.6095C387.571 45.0795 380.871 44.1195 374.711 43.4995C330.331 39.2695 275.161 33.7895 230.791 29.4795C217.041 27.6995 211.171 27.7495 195.991 29.4795C146.351 34.7295 96.7113 40.1495 47.0713 45.3695L47.0613 45.3795ZM188.901 455.65C195.611 459.729 204.211 464.96 214.041 464.96C223.241 464.96 231.861 459.74 238.591 455.65C258.211 440.88 272.781 426.569 291.001 410.049C302.011 399.859 310.071 388.879 317.321 375.529C325.761 360.479 325.481 340.169 314.411 326.49C303.281 312.329 286.061 305.409 269.661 299.379C253.251 292.819 235.881 288.649 220.051 280.689C215.601 278.179 209.481 274.459 210.761 268.439C212.561 261.679 219.381 258.22 225.001 255.01C235.341 249.1 245.951 248.49 257.781 241.55C252.371 241.11 248.791 241.15 241.561 242.01C225.181 244.38 208.761 246.83 192.741 251.02C183.141 253.66 173.291 257.289 166.161 264.49C162.131 268.449 160.131 274.93 162.831 280.15C165.941 285.99 171.991 289.37 177.581 292.479C189.221 298.52 201.151 304.009 212.481 310.609C219.911 314.96 227.771 320.139 231.151 328.439C234.331 336.729 231.111 345.899 226.381 352.909C218.561 364.089 206.451 371.049 195.291 378.419C171.051 394.079 149.411 403.189 123.671 416.059L188.921 455.639L188.901 455.65Z" fill="#123646"/></g>
</svg>
