<svg width="484" height="500" viewBox="0 0 484 500" fill="none" xmlns="http://www.w3.org/2000/svg">
<path d="M232.371 0.274833C236.961 -0.145167 244.941 -0.0451672 249.551 0.314833C287.961 3.93483 323.001 7.37483 361.391 11.2448C368.051 12.0148 374.991 11.9648 381.261 14.6748C391.801 19.2248 399.721 29.0548 402.541 40.1248C404.081 46.3048 403.621 52.7348 403.671 59.0448C403.651 106.305 403.671 153.565 403.671 200.825C403.651 211.225 404.051 221.655 402.991 232.015C400.301 253.925 391.061 274.955 376.881 291.865C367.101 303.975 354.811 313.715 342.191 322.685C313.321 343.005 280.511 361.455 249.681 378.585C244.611 381.825 237.521 381.665 232.271 378.415C209.501 366.845 189.741 354.455 167.871 341.265C153.101 332.735 138.771 323.405 125.441 312.745C95.1406 289.585 76.7206 251.635 78.3606 213.395C78.4106 158.945 78.2906 104.495 78.4206 50.0448C78.3806 32.7948 91.4106 15.2048 109.201 13.5048C150.241 8.91483 191.331 4.74483 232.391 0.284833L232.371 0.274833ZM114.091 34.5748C105.051 35.0848 98.7605 42.2648 99.6205 50.9548C99.7205 101.265 99.6206 153.375 99.9606 203.675C104.201 200.065 108.001 195.985 111.881 191.985C151.171 152.015 193.011 110.115 232.281 70.1148C234.931 67.4948 237.131 66.0048 241.021 66.0048C245.291 66.0048 246.971 67.1348 249.741 70.0348C265.271 86.7948 281.821 103.425 297.561 119.995C300.231 122.675 302.761 125.725 306.251 127.395C311.751 129.825 318.091 126.315 323.511 129.065C327.811 131.465 330.881 135.445 334.361 138.825C350.351 155.045 365.751 171.875 382.271 187.565C382.441 142.315 382.241 95.9948 382.371 50.7448C382.521 45.6248 381.011 41.2848 377.071 37.7948C373.541 34.3448 368.441 33.6148 363.741 33.1348C329.931 29.9148 287.891 25.7448 254.091 22.4548C243.621 21.1048 239.141 21.1348 227.581 22.4548C189.761 26.4548 151.941 30.5848 114.121 34.5648L114.091 34.5748ZM222.161 347.155C227.271 350.255 233.821 354.245 241.311 354.245C248.321 354.245 254.891 350.265 260.011 347.155C274.961 335.905 286.061 324.995 299.941 312.415C308.331 304.655 314.471 296.285 320.001 286.115C326.431 274.645 326.221 259.175 317.781 248.745C309.301 237.955 296.181 232.685 283.691 228.085C271.191 223.085 257.951 219.915 245.891 213.845C242.501 211.935 237.841 209.095 238.811 204.515C240.181 199.365 245.381 196.725 249.661 194.285C257.541 189.785 265.621 189.315 274.631 184.025C270.511 183.695 267.781 183.715 262.271 184.375C249.791 186.175 237.281 188.045 225.071 191.235C217.761 193.245 210.251 196.005 204.821 201.505C201.751 204.525 200.231 209.455 202.281 213.435C204.651 217.885 209.261 220.465 213.511 222.835C222.381 227.435 231.471 231.625 240.101 236.645C245.761 239.955 251.751 243.905 254.321 250.235C256.741 256.555 254.291 263.535 250.691 268.885C244.731 277.405 235.511 282.705 227.001 288.325C208.531 300.255 192.041 307.195 172.431 317.005L222.141 347.155H222.161Z" fill="#123646"/>
<path d="M23.6204 499.995C19.3304 499.995 15.1105 499.215 10.9505 497.665C6.79047 496.115 3.39047 493.955 0.200467 490.985C-0.0395326 490.755 -0.0695912 490.375 0.140409 490.125L7.09048 481.555C7.31048 481.285 7.70048 481.255 7.96048 481.475C10.1505 483.265 12.6105 484.685 15.3505 485.735C18.2805 486.855 21.1704 487.425 24.0104 487.425C27.0404 487.425 29.3004 486.865 30.7904 485.735C32.2704 484.615 33.0204 483.095 33.0204 481.175C33.0204 479.785 32.6404 478.685 31.8804 477.855C31.1204 477.025 30.0504 476.285 28.6604 475.625C27.2704 474.965 25.6305 474.235 23.7105 473.445L15.3004 469.975C13.1204 468.985 11.0304 467.715 9.02041 466.155C7.01041 464.605 5.39044 462.685 4.17044 460.405C2.95044 458.125 2.34048 455.395 2.34048 452.225C2.34048 448.655 3.3104 445.435 5.2604 442.555C7.2104 439.675 9.91039 437.365 13.3704 435.615C16.8304 433.865 20.8104 432.985 25.2904 432.985C29.1804 432.985 32.9405 433.675 36.5705 435.065C40.0105 436.385 43.0304 438.265 45.6404 440.705C45.8804 440.935 45.9005 441.315 45.6905 441.565L38.7205 450.075C38.5105 450.335 38.1404 450.375 37.8704 450.175C35.9104 448.755 33.9105 447.655 31.8605 446.855C29.6505 445.995 27.4604 445.565 25.2804 445.565C22.7704 445.565 20.7804 446.075 19.2904 447.105C17.8104 448.135 17.0605 449.565 17.0605 451.415C17.0605 452.675 17.4905 453.745 18.3505 454.635C19.2105 455.525 20.3904 456.285 21.9104 456.915C23.4304 457.545 25.0805 458.255 26.8605 459.045L35.1704 462.415C37.8104 463.475 40.0705 464.795 41.9505 466.385C43.8305 467.975 45.3005 469.875 46.3505 472.085C47.4005 474.305 47.9304 476.925 47.9304 479.965C47.9304 483.535 46.9705 486.845 45.0605 489.875C43.1505 492.915 40.3804 495.365 36.7504 497.215C33.1204 499.065 28.7405 499.995 23.5905 499.995H23.6204Z" fill="#123646"/>
<path d="M106.42 497.995L86.5304 434.705C86.4504 434.445 86.2104 434.265 85.9304 434.265H69.5304C69.2604 434.265 69.0204 434.445 68.9304 434.705L49.0404 497.995C48.9104 498.395 49.2103 498.805 49.6403 498.805H63.1504C63.4404 498.805 63.6803 498.615 63.7503 498.335L67.5804 483.435H87.2904L91.1203 498.335C91.1903 498.615 91.4404 498.805 91.7204 498.805H105.82C106.24 498.805 106.54 498.395 106.42 497.995ZM70.5103 472.035L72.0404 466.085C72.9604 462.845 73.8703 459.425 74.7603 455.825C75.6503 452.225 76.4604 448.675 77.1804 445.165H77.5804C78.4404 448.605 79.2904 452.135 80.1504 455.775C81.0104 459.415 81.9004 462.845 82.8204 466.085L84.3504 472.035H70.5103Z" fill="#123646"/>
<path d="M112 498.175V434.785C112 434.435 112.28 434.155 112.62 434.155H152.04C152.38 434.155 152.66 434.435 152.66 434.785V445.825C152.66 446.175 152.38 446.455 152.04 446.455H127.17C126.83 446.455 126.55 446.735 126.55 447.085V460.805C126.55 461.155 126.83 461.435 127.17 461.435H148.28C148.62 461.435 148.9 461.715 148.9 462.065V473.105C148.9 473.455 148.62 473.735 148.28 473.735H127.17C126.83 473.735 126.55 474.015 126.55 474.365V498.195C126.55 498.545 126.27 498.825 125.93 498.825H112.63C112.29 498.825 112.01 498.545 112.01 498.195L112 498.175Z" fill="#123646"/>
<path d="M160.281 498.175V434.785C160.281 434.435 160.561 434.155 160.901 434.155H200.021C200.361 434.155 200.641 434.435 200.641 434.785V445.825C200.641 446.175 200.361 446.455 200.021 446.455H175.441C175.101 446.455 174.821 446.735 174.821 447.085V458.825C174.821 459.175 175.101 459.455 175.441 459.455H196.161C196.501 459.455 196.781 459.735 196.781 460.085V471.025C196.781 471.375 196.501 471.655 196.161 471.655H175.441C175.101 471.655 174.821 471.935 174.821 472.285V485.905C174.821 486.255 175.101 486.535 175.441 486.535H201.01C201.35 486.535 201.63 486.815 201.63 487.165V498.205C201.63 498.555 201.35 498.835 201.01 498.835H160.901C160.561 498.835 160.281 498.555 160.281 498.205V498.175Z" fill="#123646"/>
<path d="M224.981 498.235V447.135C224.981 446.785 224.701 446.505 224.361 446.505H207.901C207.561 446.505 207.281 446.225 207.281 445.875V434.935C207.281 434.585 207.561 434.305 207.901 434.305H256.721C257.061 434.305 257.341 434.585 257.341 434.935V445.875C257.341 446.225 257.061 446.505 256.721 446.505H240.26C239.92 446.505 239.641 446.785 239.641 447.135V498.235C239.641 498.585 239.361 498.865 239.021 498.865H225.62C225.28 498.865 225 498.585 225 498.235H224.981Z" fill="#123646"/>
<path d="M315.63 497.875L300.55 472.885C303.88 471.395 306.59 469.235 308.64 466.385C310.88 463.275 312 459.245 312 454.285C312 449.325 310.88 445.185 308.64 442.235C306.4 439.295 303.4 437.215 299.64 435.985C295.88 434.765 291.72 434.155 287.17 434.155H264.54C264.2 434.155 263.92 434.435 263.92 434.785V498.175C263.92 498.525 264.2 498.805 264.54 498.805H277.84C278.18 498.805 278.46 498.525 278.46 498.175V476.125C278.46 475.775 278.74 475.495 279.08 475.495H286.49L299.65 498.465C299.76 498.665 299.97 498.795 300.2 498.795H315.08C315.56 498.795 315.86 498.275 315.62 497.865L315.63 497.875ZM278.46 463.285V446.395C278.46 446.045 278.74 445.765 279.08 445.765H285.98C289.81 445.765 292.72 446.395 294.74 447.645C296.75 448.905 297.76 451.115 297.76 454.285C297.76 457.455 296.75 459.855 294.74 461.475C292.73 463.095 289.81 463.905 285.98 463.905H279.08C278.74 463.905 278.46 463.625 278.46 463.275V463.285Z" fill="#123646"/>
<path d="M323.21 498.175V434.785C323.21 434.435 323.49 434.155 323.83 434.155H362.95C363.29 434.155 363.57 434.435 363.57 434.785V445.825C363.57 446.175 363.29 446.455 362.95 446.455H338.37C338.03 446.455 337.75 446.735 337.75 447.085V458.825C337.75 459.175 338.03 459.455 338.37 459.455H359.09C359.43 459.455 359.71 459.735 359.71 460.085V471.025C359.71 471.375 359.43 471.655 359.09 471.655H338.37C338.03 471.655 337.75 471.935 337.75 472.285V485.905C337.75 486.255 338.03 486.535 338.37 486.535H363.94C364.28 486.535 364.56 486.815 364.56 487.165V498.205C364.56 498.555 364.28 498.835 363.94 498.835H323.83C323.49 498.835 323.21 498.555 323.21 498.205V498.175Z" fill="#123646"/>
<path d="M372.24 498.175V434.785C372.24 434.435 372.52 434.155 372.86 434.155H386.16C386.5 434.155 386.78 434.435 386.78 434.785V460.635H387.18L406.19 434.425C406.31 434.265 406.5 434.165 406.7 434.165H421.15C421.67 434.165 421.96 434.755 421.65 435.165L403.17 459.605C403.02 459.805 403 460.085 403.13 460.305L425.41 497.865C425.66 498.285 425.36 498.815 424.87 498.815H410.4C410.18 498.815 409.97 498.695 409.86 498.505L394.78 472.365C394.56 471.975 394.01 471.945 393.74 472.295L386.92 481.295C386.84 481.405 386.79 481.535 386.79 481.675V498.185C386.79 498.535 386.51 498.815 386.17 498.815H372.87C372.53 498.815 372.25 498.535 372.25 498.185L372.24 498.175Z" fill="#123646"/>
<path d="M483.87 497.875L468.79 472.885C472.12 471.395 474.83 469.235 476.88 466.385C479.12 463.275 480.24 459.245 480.24 454.285C480.24 449.325 479.12 445.185 476.88 442.235C474.64 439.295 471.64 437.215 467.88 435.985C464.12 434.765 459.96 434.155 455.41 434.155H432.78C432.44 434.155 432.16 434.435 432.16 434.785V498.175C432.16 498.525 432.44 498.805 432.78 498.805H446.08C446.42 498.805 446.7 498.525 446.7 498.175V476.125C446.7 475.775 446.98 475.495 447.32 475.495H454.73L467.89 498.465C468 498.665 468.21 498.795 468.44 498.795H483.32C483.8 498.795 484.1 498.275 483.86 497.865L483.87 497.875ZM446.7 463.285V446.395C446.7 446.045 446.98 445.765 447.32 445.765H454.22C458.05 445.765 460.96 446.395 462.98 447.645C464.99 448.905 466 451.115 466 454.285C466 457.455 464.99 459.855 462.98 461.475C460.97 463.095 458.05 463.905 454.22 463.905H447.32C446.98 463.905 446.7 463.625 446.7 463.275V463.285Z" fill="#123646"/>
</svg>
