<svg width="399" height="56" viewBox="0 0 399 56" fill="none" xmlns="http://www.w3.org/2000/svg">
<path d="M19.435 55.16C15.905 55.16 12.4351 54.52 9.01512 53.24C5.59512 51.96 2.79502 50.18 0.165018 47.74C-0.0349816 47.55 -0.0550305 47.24 0.11497 47.03L5.83494 39.97C6.01494 39.75 6.33516 39.72 6.55516 39.9C8.35515 41.37 10.385 42.54 12.635 43.4C15.045 44.33 17.4251 44.79 19.7551 44.79C22.2551 44.79 24.1149 44.33 25.3349 43.4C26.5549 42.48 27.165 41.23 27.165 39.65C27.165 38.51 26.8551 37.6 26.2251 36.92C25.6051 36.24 24.7149 35.63 23.5749 35.08C22.4349 34.54 21.0751 33.94 19.5051 33.28L12.5849 30.42C10.7949 29.6 9.06502 28.56 7.41502 27.28C5.75502 26 4.42503 24.42 3.42503 22.55C2.42503 20.67 1.91502 18.43 1.91502 15.82C1.91502 12.88 2.71492 10.23 4.31492 7.87C5.91492 5.5 8.1451 3.59999 10.9951 2.15999C13.8451 0.719988 17.1152 0 20.8052 0C24.0052 0 27.1049 0.569991 30.0849 1.70999C32.9149 2.78999 35.4052 4.33999 37.5552 6.34999C37.7552 6.53999 37.775 6.85 37.595 7.06L31.855 14.06C31.685 14.27 31.375 14.3 31.155 14.15C29.545 12.98 27.8951 12.07 26.2151 11.42C24.3951 10.71 22.5952 10.36 20.8052 10.36C18.7452 10.36 17.095 10.78 15.875 11.62C14.655 12.46 14.0451 13.65 14.0451 15.17C14.0451 16.2 14.395 17.09 15.105 17.82C15.805 18.55 16.7851 19.18 18.0351 19.7C19.2851 20.22 20.645 20.8 22.105 21.45L28.945 24.22C31.115 25.09 32.9751 26.18 34.5251 27.48C36.0751 28.79 37.275 30.35 38.145 32.17C39.015 33.99 39.445 36.16 39.445 38.66C39.445 41.6 38.6549 44.32 37.0849 46.82C35.5049 49.32 33.2351 51.34 30.2451 52.86C27.2551 54.38 23.645 55.14 19.415 55.14L19.435 55.16Z" fill="white"/>
<path d="M87.5646 53.5098L71.1947 1.42982C71.1247 1.21982 70.9247 1.06982 70.7047 1.06982H57.2047C56.9847 1.06982 56.7847 1.21982 56.7147 1.42982L40.3446 53.5098C40.2446 53.8398 40.4846 54.1798 40.8346 54.1798H51.9447C52.1747 54.1798 52.3847 54.0198 52.4447 53.7898L55.5946 41.5298H71.8146L74.9647 53.7898C75.0247 54.0198 75.2247 54.1798 75.4647 54.1798H87.0646C87.4146 54.1798 87.6548 53.8398 87.5548 53.5098H87.5646ZM58.0248 32.1498L59.2848 27.2498C60.0448 24.5898 60.7948 21.7698 61.5248 18.8098C62.2548 15.8498 62.9248 12.9198 63.5148 10.0398H63.8446C64.5446 12.8698 65.2547 15.7798 65.9647 18.7698C66.6647 21.7598 67.4047 24.5898 68.1647 27.2598L69.4247 32.1598H58.0348L58.0248 32.1498Z" fill="white"/>
<path d="M92.165 53.6602V1.4902C92.165 1.2102 92.395 0.970215 92.675 0.970215H125.115C125.395 0.970215 125.625 1.2002 125.625 1.4902V10.5802C125.625 10.8602 125.395 11.1002 125.115 11.1002H104.645C104.365 11.1002 104.135 11.3302 104.135 11.6202V22.9102C104.135 23.1902 104.365 23.4302 104.645 23.4302H122.015C122.295 23.4302 122.525 23.6602 122.525 23.9502V33.0402C122.525 33.3202 122.295 33.5602 122.015 33.5602H104.645C104.365 33.5602 104.135 33.7902 104.135 34.0802V53.6902C104.135 53.9702 103.905 54.2102 103.625 54.2102H92.6851C92.4051 54.2102 92.175 53.9802 92.175 53.6902L92.165 53.6602Z" fill="white"/>
<path d="M131.895 53.6602V1.4902C131.895 1.2102 132.125 0.970215 132.405 0.970215H164.595C164.875 0.970215 165.105 1.2002 165.105 1.4902V10.5802C165.105 10.8602 164.875 11.1002 164.595 11.1002H144.375C144.095 11.1002 143.865 11.3302 143.865 11.6202V21.2802C143.865 21.5602 144.095 21.8002 144.375 21.8002H161.425C161.705 21.8002 161.935 22.0302 161.935 22.3202V31.3302C161.935 31.6102 161.705 31.8502 161.425 31.8502H144.375C144.095 31.8502 143.865 32.0802 143.865 32.3702V43.5802C143.865 43.8602 144.095 44.1002 144.375 44.1002H165.415C165.695 44.1002 165.925 44.3302 165.925 44.6202V53.7102C165.925 53.9902 165.695 54.2302 165.415 54.2302H132.405C132.125 54.2302 131.895 54.0002 131.895 53.7102V53.6602Z" fill="white"/>
<path d="M185.135 53.7098V11.6598C185.135 11.3798 184.905 11.1398 184.625 11.1398H171.075C170.795 11.1398 170.565 10.9098 170.565 10.6198V1.60985C170.565 1.32985 170.795 1.08984 171.075 1.08984H211.245C211.525 1.08984 211.755 1.31985 211.755 1.60985V10.6198C211.755 10.8998 211.525 11.1398 211.245 11.1398H197.695C197.415 11.1398 197.185 11.3698 197.185 11.6598V53.7098C197.185 53.9898 196.955 54.2298 196.675 54.2298H185.655C185.375 54.2298 185.145 53.9998 185.145 53.7098H185.135Z" fill="white"/>
<path d="M259.735 53.41L247.325 32.84C250.065 31.62 252.295 29.84 253.985 27.49C255.825 24.93 256.755 21.62 256.755 17.54C256.755 13.46 255.835 10.05 253.985 7.62997C252.135 5.20997 249.665 3.49997 246.575 2.48997C243.485 1.47997 240.065 0.97998 236.315 0.97998H217.695C217.415 0.97998 217.185 1.20998 217.185 1.49998V53.67C217.185 53.95 217.415 54.19 217.695 54.19H228.635C228.915 54.19 229.145 53.96 229.145 53.67V35.53C229.145 35.25 229.375 35.01 229.655 35.01H235.755L246.585 53.91C246.675 54.08 246.845 54.18 247.035 54.18H259.285C259.675 54.18 259.925 53.75 259.735 53.41ZM229.145 24.95V11.05C229.145 10.77 229.375 10.53 229.655 10.53H235.325C238.475 10.53 240.875 11.05 242.535 12.08C244.195 13.11 245.015 14.94 245.015 17.55C245.015 20.16 244.185 22.13 242.535 23.47C240.875 24.8 238.475 25.47 235.325 25.47H229.655C229.375 25.47 229.145 25.24 229.145 24.95Z" fill="white"/>
<path d="M265.965 53.6602V1.4902C265.965 1.2102 266.195 0.970215 266.475 0.970215H298.665C298.945 0.970215 299.175 1.2002 299.175 1.4902V10.5802C299.175 10.8602 298.945 11.1002 298.665 11.1002H278.445C278.165 11.1002 277.935 11.3302 277.935 11.6202V21.2802C277.935 21.5602 278.165 21.8002 278.445 21.8002H295.495C295.775 21.8002 296.005 22.0302 296.005 22.3202V31.3302C296.005 31.6102 295.775 31.8502 295.495 31.8502H278.445C278.165 31.8502 277.935 32.0802 277.935 32.3702V43.5802C277.935 43.8602 278.165 44.1002 278.445 44.1002H299.485C299.765 44.1002 299.995 44.3302 299.995 44.6202V53.7102C299.995 53.9902 299.765 54.2302 299.485 54.2302H266.475C266.195 54.2302 265.965 54.0002 265.965 53.7102V53.6602Z" fill="white"/>
<path d="M306.315 53.6602V1.4902C306.315 1.2102 306.545 0.970215 306.825 0.970215H317.765C318.045 0.970215 318.275 1.2002 318.275 1.4902V22.7602H318.605L334.245 1.1902C334.345 1.0602 334.495 0.980209 334.665 0.980209H346.555C346.975 0.980209 347.225 1.47021 346.965 1.81021L331.755 21.9202C331.625 22.0902 331.615 22.3102 331.725 22.4902L350.055 53.4002C350.255 53.7402 350.015 54.1802 349.615 54.1802H337.705C337.525 54.1802 337.355 54.0802 337.255 53.9202L324.845 32.4102C324.665 32.0902 324.215 32.0602 323.995 32.3602L318.375 39.7602C318.305 39.8502 318.275 39.9602 318.275 40.0702V53.6602C318.275 53.9402 318.045 54.1802 317.765 54.1802H306.825C306.545 54.1802 306.315 53.9502 306.315 53.6602Z" fill="white"/>
<path d="M398.185 53.41L385.775 32.84C388.515 31.62 390.745 29.84 392.435 27.49C394.275 24.93 395.205 21.62 395.205 17.54C395.205 13.46 394.285 10.05 392.435 7.62997C390.585 5.20997 388.115 3.49997 385.025 2.48997C381.935 1.47997 378.515 0.97998 374.765 0.97998H356.145C355.865 0.97998 355.635 1.20998 355.635 1.49998V53.67C355.635 53.95 355.865 54.19 356.145 54.19H367.085C367.365 54.19 367.595 53.96 367.595 53.67V35.53C367.595 35.25 367.825 35.01 368.105 35.01H374.205L385.035 53.91C385.125 54.08 385.295 54.18 385.485 54.18H397.735C398.125 54.18 398.375 53.75 398.185 53.41ZM367.595 24.95V11.05C367.595 10.77 367.825 10.53 368.105 10.53H373.775C376.925 10.53 379.325 11.05 380.985 12.08C382.645 13.11 383.465 14.94 383.465 17.55C383.465 20.16 382.635 22.13 380.985 23.47C379.325 24.8 376.925 25.47 373.775 25.47H368.105C367.825 25.47 367.595 25.24 367.595 24.95Z" fill="white"/>
</svg>
